<?xml version="1.0" standalone="no"?>
<!DOCTYPE svg PUBLIC "-//W3C//DTD SVG 20010904//EN"
 "http://www.w3.org/TR/2001/REC-SVG-20010904/DTD/svg10.dtd">
<svg version="1.0" xmlns="http://www.w3.org/2000/svg"
 width="720.000000pt" height="720.000000pt" viewBox="0 0 720.000000 720.000000"
 preserveAspectRatio="xMidYMid meet">
<metadata>
Created by potrace 1.11, written by Peter Selinger 2001-2013
</metadata>
<g transform="translate(0.000000,720.000000) scale(0.100000,-0.100000)"
fill="#000000" stroke="none">
<path d="M935 4845 c-271 -51 -488 -163 -665 -344 -190 -194 -270 -392 -270
-671 0 -292 91 -513 292 -706 176 -170 401 -278 663 -319 152 -24 378 -16 525
18 259 61 495 182 737 379 154 125 226 204 619 678 271 327 393 439 566 520
91 43 183 60 323 60 143 0 222 -17 320 -67 102 -52 152 -88 227 -165 l67 -68
53 49 c29 26 68 61 86 76 l32 27 0 -44 c0 -42 -4 -48 -62 -99 -94 -83 -129
-106 -173 -118 -54 -14 -84 -37 -101 -76 -43 -104 98 -199 196 -132 24 16 38
37 51 76 19 60 18 59 144 201 50 56 92 107 93 113 2 7 10 26 18 44 22 48 18
90 -11 119 -14 14 -25 31 -25 38 0 24 -135 142 -245 214 -58 39 -140 85 -183
103 -333 138 -834 135 -1064 -8 -21 -13 -40 -23 -43 -23 -3 0 -40 -26 -83 -57
-129 -96 -387 -363 -576 -598 -204 -254 -461 -511 -636 -636 -242 -172 -511
-247 -771 -214 -372 47 -600 258 -617 570 -8 152 32 283 122 402 110 146 292
237 529 264 266 31 553 -65 752 -252 l50 -46 136 121 c75 66 142 130 149 141
12 18 7 25 -46 73 -229 206 -426 305 -699 352 -137 23 -368 26 -480 5z m3693
-483 c16 -21 15 -44 -2 -67 -8 -11 -20 -16 -29 -12 -9 3 -23 0 -31 -8 -22 -23
-26 -19 -26 28 0 76 48 109 88 59z"/>
<path d="M5695 4796 c-142 -35 -234 -117 -349 -316 -301 -517 -452 -737 -663
-968 -97 -107 -184 -172 -309 -233 -155 -75 -259 -100 -439 -106 -138 -5 -159
-3 -251 20 -177 45 -314 120 -447 246 l-74 71 -124 -131 c-68 -73 -130 -140
-136 -149 -11 -16 -7 -23 32 -54 73 -61 234 -164 335 -215 356 -182 717 -215
1070 -100 410 135 684 393 1074 1011 156 247 274 426 314 476 65 80 46 77 507
77 l410 0 60 -30 c176 -88 171 -338 -9 -430 l-60 -30 -425 -6 c-449 -6 -491
-10 -588 -56 -88 -41 -149 -130 -173 -253 -13 -70 -15 -391 -4 -662 l7 -158
218 0 219 0 0 360 0 360 353 0 c461 0 553 15 693 111 129 88 219 220 250 369
19 91 14 283 -10 375 -55 208 -210 370 -401 420 -50 12 -139 15 -545 14 -344
0 -499 -4 -535 -13z"/>
<path d="M3588 4233 c-20 -5 -32 -33 -19 -46 6 -6 16 1 26 17 19 29 18 34 -7
29z"/>
<path d="M3640 4208 c0 -8 9 -32 20 -54 l19 -39 -27 -24 c-25 -22 -27 -23 -37
-5 -5 10 -27 36 -49 58 -21 23 -31 30 -22 16 9 -14 29 -51 44 -82 15 -32 33
-58 40 -58 7 0 24 12 38 27 24 25 25 26 38 7 18 -24 31 -13 17 14 -14 27 -14
53 0 29 14 -24 29 -12 29 24 0 19 -5 29 -15 29 -12 0 -13 4 -5 19 12 23 13 41
2 41 -4 0 -14 -16 -21 -35 -14 -40 -27 -38 -39 7 -8 32 -32 51 -32 26z"/>
<path d="M3797 4213 c-4 -3 -7 -21 -7 -38 0 -18 -11 -53 -25 -78 -30 -54 -18
-71 18 -26 l25 32 6 -32 c3 -17 9 -45 12 -62 8 -39 25 -45 66 -22 53 29 69 45
94 97 28 59 28 56 9 56 -8 0 -31 -24 -49 -52 -29 -45 -63 -78 -80 -78 -11 0
-38 91 -43 146 -6 61 -11 73 -26 57z"/>
<path d="M3333 4203 c-23 -8 -14 -22 32 -48 62 -37 76 -27 24 16 -24 20 -50
34 -56 32z"/>
<path d="M3440 4188 c0 -8 6 -23 14 -34 12 -15 17 -17 28 -6 9 9 10 17 2 30
-14 21 -44 28 -44 10z"/>
<path d="M3594 4165 c-9 -22 22 -53 37 -38 15 15 7 47 -14 51 -9 2 -20 -4 -23
-13z"/>
<path d="M3507 4108 l-13 -33 -27 27 -27 27 -14 -22 c-8 -12 -20 -41 -27 -64
-7 -24 -15 -43 -18 -42 -9 1 -71 88 -71 99 0 6 -9 10 -20 10 -11 0 -20 -2 -20
-4 0 -2 20 -34 45 -70 25 -37 45 -72 45 -77 0 -5 9 -9 19 -9 12 0 21 10 26 28
3 15 13 51 22 80 l15 54 24 -36 c13 -19 24 -40 24 -46 0 -21 24 -4 30 21 16
58 19 89 10 89 -6 0 -16 -15 -23 -32z"/>
<path d="M3859 4089 c-8 -15 -8 -24 0 -32 15 -15 46 16 38 37 -9 22 -24 20
-38 -5z"/>
<path d="M3357 4074 c-3 -4 -2 -16 4 -26 13 -24 35 -9 26 16 -7 17 -19 21 -30
10z"/>
<path d="M3537 3985 c-31 -32 -36 -34 -45 -19 -6 10 -16 15 -26 11 -20 -8 -21
-27 -2 -27 28 0 28 -38 0 -92 l-27 -53 -36 45 c-20 25 -54 65 -77 89 -35 38
-43 42 -60 33 -19 -11 -19 -12 1 -17 12 -4 26 -19 33 -34 7 -15 26 -42 44 -59
30 -31 31 -36 29 -110 0 -42 -4 -116 -7 -164 l-7 -88 52 0 c56 0 57 1 64 85 3
27 4 20 5 -22 1 -40 6 -63 14 -63 8 0 9 33 3 128 -12 194 -12 195 4 225 19 33
25 34 39 2 9 -19 8 -59 -3 -167 -8 -79 -17 -153 -20 -165 -5 -22 -3 -23 55
-23 l60 0 0 35 c0 19 5 35 11 35 7 0 10 -14 7 -35 -4 -34 -3 -35 33 -35 35 0
38 2 42 33 l4 32 1 -31 c2 -27 7 -32 34 -38 17 -3 36 -2 40 2 5 5 12 86 16
180 5 95 12 175 15 179 17 16 18 -16 7 -154 -7 -81 -13 -161 -14 -178 l-1 -30
73 -3 72 -3 1 38 c0 21 2 55 3 75 2 21 -1 79 -5 130 l-8 93 34 35 c28 29 32
38 23 54 -8 14 -5 25 11 47 12 16 17 29 12 29 -13 0 -41 -29 -41 -41 0 -6 -17
-31 -39 -57 -21 -26 -44 -58 -51 -71 -12 -24 -13 -23 -31 34 -18 57 -13 95 11
95 6 0 10 5 10 10 0 15 -21 12 -41 -6 -17 -15 -19 -14 -35 20 -10 20 -24 36
-31 36 -18 0 -16 -10 7 -45 26 -40 25 -49 -11 -102 l-31 -45 -29 52 c-30 54
-29 61 9 132 2 3 -6 4 -17 1 -12 -3 -21 -11 -21 -18 0 -7 -6 -18 -14 -24 -11
-9 -16 -9 -23 2 -4 7 -16 16 -25 20 -25 9 -23 -15 2 -31 11 -7 20 -19 20 -28
0 -17 -51 -114 -60 -114 -3 0 -20 27 -38 60 -35 63 -34 77 6 123 30 34 3 28
-31 -8z m172 -218 c-24 -187 -32 -243 -38 -249 -11 -13 -12 322 0 344 11 20
11 20 28 -6 15 -22 16 -37 10 -89z m-283 0 c3 -8 1 -36 -4 -63 l-9 -49 -4 63
c-4 57 4 81 17 49z m351 -99 c-3 -7 -5 -2 -5 12 0 14 2 19 5 13 2 -7 2 -19 0
-25z m-10 -50 c-3 -7 -5 -2 -5 12 0 14 2 19 5 13 2 -7 2 -19 0 -25z m146 -39
c-5 -5 -7 7 -4 29 5 34 6 35 9 8 2 -16 0 -32 -5 -37z m34 -51 c-2 -13 -4 -3
-4 22 0 25 2 35 4 23 2 -13 2 -33 0 -45z"/>
<path d="M3762 3948 c-13 -13 -15 -37 -6 -62 5 -13 9 -12 26 9 29 37 12 85
-20 53z"/>
<path d="M3555 3940 c-6 -10 19 -65 34 -74 14 -9 23 55 10 70 -13 16 -35 18
-44 4z"/>
<path d="M3393 3924 c-3 -9 2 -32 12 -52 l18 -37 9 30 c4 17 6 40 3 53 -6 25
-33 30 -42 6z"/>
<path d="M3900 3928 c0 -7 -3 -23 -6 -35 -9 -33 24 -30 36 3 14 36 13 44 -10
44 -11 0 -20 -6 -20 -12z"/>
<path d="M165 2661 c-52 -23 -101 -80 -115 -131 -9 -33 -8 -47 5 -74 27 -57
87 -71 163 -36 44 20 49 31 32 75 -8 22 -13 24 -29 15 -50 -26 -85 3 -56 46
16 25 68 34 81 13 8 -14 74 49 74 71 0 39 -89 51 -155 21z"/>
<path d="M695 2657 c-54 -30 -105 -107 -105 -158 0 -125 176 -127 259 -2 40
60 43 122 6 158 -32 33 -103 34 -160 2z m81 -91 c15 -39 -45 -81 -74 -53 -14
14 -13 18 2 41 18 29 63 36 72 12z"/>
<path d="M993 2673 l-52 -4 -16 -57 c-9 -31 -27 -86 -41 -122 -13 -36 -24 -69
-24 -73 0 -13 100 -8 104 6 2 6 8 21 12 32 7 17 9 15 12 -12 l3 -33 110 0 c66
0 109 4 109 10 0 6 14 10 30 10 17 0 30 -4 30 -10 0 -5 25 -10 55 -10 l55 0 0
113 c0 152 -2 157 -55 157 l-43 0 -90 -130 -90 -130 -7 45 c-6 42 -4 47 24 70
31 27 47 71 36 104 -6 20 -63 43 -95 39 -8 -1 -38 -3 -67 -5z m55 -91 c2 -7
-4 -15 -13 -18 -20 -8 -27 -1 -19 20 7 18 25 17 32 -2z m246 -47 c-4 -8 -10
-15 -15 -15 -5 0 -9 7 -9 15 0 8 7 15 15 15 9 0 12 -6 9 -15z"/>
<path d="M2685 2661 c-50 -23 -89 -64 -110 -115 -41 -97 45 -172 150 -132 49
19 61 40 45 80 -8 23 -13 25 -29 16 -50 -26 -85 3 -56 46 16 25 68 34 81 13 8
-14 74 49 74 71 0 39 -89 51 -155 21z"/>
<path d="M2933 2664 c-81 -40 -138 -144 -113 -204 13 -31 54 -60 87 -60 71 0
153 56 184 125 27 58 24 92 -10 126 -24 23 -38 29 -73 29 -24 0 -58 -8 -75
-16z m67 -109 c0 -28 -41 -61 -65 -51 -37 14 -4 76 41 76 19 0 24 -5 24 -25z"/>
<path d="M3235 2666 c-40 -17 -95 -72 -111 -113 -44 -105 32 -180 141 -139 57
22 68 36 55 70 -9 24 -13 26 -49 20 -43 -7 -56 4 -47 40 7 27 47 48 67 35 26
-16 47 -9 74 28 l28 36 -22 19 c-27 21 -92 23 -136 4z"/>
<path d="M3454 2648 c-93 -63 -121 -162 -64 -220 28 -27 36 -30 76 -25 98 11
183 96 184 185 0 62 -32 92 -98 92 -39 0 -60 -7 -98 -32z m94 -90 c4 -21 -34
-60 -55 -56 -30 6 -39 35 -18 58 22 25 68 24 73 -2z"/>
<path d="M5318 2663 c-22 -26 -168 -241 -168 -247 0 -10 99 -6 105 4 3 6 19
10 36 10 16 0 29 -4 29 -10 0 -5 25 -10 55 -10 l55 0 0 89 c0 48 -3 109 -6
135 l-7 46 -42 0 c-28 0 -47 -6 -57 -17z m22 -128 c0 -8 -7 -15 -15 -15 -16 0
-20 12 -8 23 11 12 23 8 23 -8z"/>
<path d="M312 2546 c-23 -68 -42 -126 -42 -130 0 -3 22 -6 49 -6 49 0 49 0 63
43 12 34 20 43 41 45 31 4 33 -2 12 -52 l-15 -36 54 0 54 0 28 83 c15 45 35
103 45 130 l19 47 -55 0 -54 0 -11 -40 c-9 -35 -14 -40 -40 -40 -34 0 -35 4
-15 40 22 38 19 40 -38 40 l-54 0 -41 -124z"/>
<path d="M1441 2547 c-23 -67 -41 -125 -41 -130 0 -4 42 -7 94 -7 l94 0 16 40
c9 22 16 43 16 46 0 3 -20 2 -45 -2 -55 -8 -56 -4 -16 100 l29 76 -53 0 -53 0
-41 -123z"/>
<path d="M1661 2550 c-22 -66 -41 -125 -41 -130 0 -6 38 -10 93 -10 l92 0 18
31 c25 44 22 49 -28 49 -27 0 -45 5 -45 11 0 8 14 10 40 6 36 -5 41 -3 55 26
22 43 20 47 -27 47 -29 0 -38 3 -29 9 7 5 30 7 51 4 33 -5 38 -2 43 18 16 58
15 59 -87 59 l-94 0 -41 -120z"/>
<path d="M2020 2668 c0 -2 -20 -61 -43 -131 l-43 -129 91 4 c77 2 97 7 127 28
81 55 115 164 66 210 -18 17 -35 20 -110 20 -48 0 -88 -1 -88 -2z m115 -89
c12 -18 -4 -58 -30 -75 -37 -24 -44 -14 -27 39 10 33 20 47 33 47 10 0 21 -5
24 -11z"/>
<path d="M2265 2553 c-22 -64 -41 -123 -43 -130 -3 -10 19 -13 92 -13 l96 0
20 40 20 40 -50 0 c-30 0 -50 4 -50 11 0 8 14 10 40 6 37 -5 42 -3 55 23 22
43 19 50 -27 50 -23 0 -39 3 -35 6 3 4 27 6 52 6 41 -1 45 1 51 26 3 15 7 33
10 40 2 9 -21 12 -94 12 l-97 0 -40 -117z"/>
<path d="M3672 2545 c-23 -69 -42 -127 -42 -130 0 -3 37 -5 82 -5 69 0 88 4
124 25 74 44 114 121 93 183 -14 42 -40 52 -138 52 l-78 0 -41 -125z m156 17
c4 -26 -32 -72 -55 -72 -16 0 -16 12 -1 62 9 31 16 38 32 36 13 -2 22 -12 24
-26z"/>
<path d="M3970 2629 c-9 -32 -8 -51 4 -93 14 -48 14 -58 1 -90 l-15 -36 55 0
c51 0 55 2 61 28 4 15 32 54 61 87 48 53 83 110 83 136 0 5 -24 9 -53 9 l-54
0 -12 -40 c-6 -22 -16 -40 -21 -40 -13 0 -13 22 0 54 9 26 9 26 -45 26 l-54 0
-11 -41z"/>
<path d="M4340 2668 c0 -2 -20 -60 -44 -130 l-44 -128 53 0 c48 0 53 2 59 25
5 20 13 25 39 25 47 0 99 32 124 76 27 46 29 81 7 112 -14 20 -23 22 -105 22
-49 0 -89 -1 -89 -2z m100 -92 c0 -14 -28 -42 -35 -34 -2 2 -2 14 2 26 6 24
33 31 33 8z"/>
<path d="M4595 2658 c-2 -7 -20 -58 -38 -113 -19 -55 -38 -108 -42 -117 -6
-16 -1 -18 48 -18 l54 0 13 45 c11 40 16 45 41 45 34 0 33 2 14 -43 -8 -20
-15 -39 -15 -42 0 -3 24 -5 53 -5 l52 0 38 113 c21 61 41 120 44 130 5 16 0
18 -48 15 -53 -3 -54 -4 -63 -40 -8 -33 -13 -38 -39 -38 -31 0 -31 -2 -10 63
5 15 -2 17 -46 17 -32 0 -53 -5 -56 -12z"/>
<path d="M4855 2553 c-22 -64 -41 -123 -43 -130 -3 -9 11 -13 50 -13 l53 0 38
118 c21 64 41 123 44 130 3 9 -10 12 -49 12 l-53 0 -40 -117z"/>
<path d="M5025 2658 c-2 -7 -20 -63 -39 -123 -20 -61 -36 -113 -36 -118 0 -4
42 -7 94 -7 l94 0 16 40 c9 22 16 43 16 46 0 3 -20 3 -45 0 -55 -8 -56 -1 -16
102 l29 72 -54 0 c-35 0 -56 -5 -59 -12z"/>
<path d="M5522 2648 c-3 -13 -22 -71 -43 -130 l-37 -108 84 0 c95 0 122 10
170 62 40 42 54 69 54 105 -1 77 -24 93 -141 93 -75 0 -81 -2 -87 -22z m125
-74 c9 -23 -13 -63 -42 -76 -14 -6 -27 -9 -30 -6 -3 2 2 26 11 51 12 34 21 47
35 47 11 0 22 -7 26 -16z"/>
<path d="M5810 2668 c0 -2 -20 -60 -44 -130 l-44 -128 97 0 97 0 17 35 c9 20
17 38 17 40 0 3 -20 5 -45 5 -27 0 -45 5 -45 11 0 8 13 9 40 5 38 -6 40 -5 55
30 8 20 15 38 15 40 0 2 -18 4 -41 4 -22 0 -38 4 -34 9 3 6 25 7 49 5 39 -5
44 -3 49 18 16 57 15 58 -88 58 -52 0 -95 -1 -95 -2z"/>
<path d="M5993 2543 c-23 -70 -41 -128 -40 -130 7 -7 180 -4 187 3 5 5 16 26
25 48 l16 39 -50 -7 c-32 -4 -51 -3 -51 3 0 9 28 86 55 154 6 15 1 17 -46 17
l-54 0 -42 -127z"/>
<path d="M6217 2558 c-21 -62 -40 -121 -44 -130 -5 -16 2 -18 46 -18 46 0 53
3 61 25 8 20 16 25 43 25 19 0 49 10 68 23 40 26 84 107 74 136 -13 43 -32 51
-123 51 l-87 0 -38 -112z m137 23 c7 -11 -20 -48 -29 -39 -9 8 4 48 15 48 5 0
11 -4 14 -9z"/>
<path d="M6475 2553 c-22 -64 -41 -123 -43 -130 -3 -9 10 -13 46 -13 52 0 53
0 76 73 3 10 15 17 32 17 28 0 28 -4 8 -68 -6 -22 -5 -23 45 -20 l52 3 43 128
43 127 -52 0 -52 0 -12 -40 c-10 -35 -16 -40 -41 -40 -34 0 -35 4 -15 40 22
38 19 40 -38 40 l-52 0 -40 -117z"/>
<path d="M6805 2658 c-2 -7 -22 -66 -44 -130 l-40 -118 55 0 c30 0 54 1 54 3
0 1 20 60 44 130 l43 127 -54 0 c-34 0 -55 -5 -58 -12z"/>
<path d="M6906 2552 c-21 -64 -40 -123 -43 -129 -4 -10 19 -13 91 -13 l96 0
20 33 c11 17 20 35 20 40 0 4 -23 7 -51 7 -34 0 -48 4 -43 11 4 7 22 9 43 6
36 -4 37 -4 63 52 14 31 29 68 33 84 l7 27 -98 0 -99 0 -39 -118z m182 31
c-10 -2 -28 -2 -40 0 -13 2 -5 4 17 4 22 1 32 -1 23 -4z"/>
</g>
</svg>
